solid inlet
facet normal  -8.277069E-15 -3.005768E-14 1.0          
    outer loop
       vertex 2.0377289E-02 1.4944351E-02 2.5501942E-02
       vertex 2.0473473E-02 1.4917865E-02 2.5501942E-02
       vertex 2.0450392E-02 1.5039647E-02 2.5501942E-02
    endloop
endfacet
facet normal  1.5831835E-14 -2.548847E-14 1.0          
    outer loop
       vertex 2.0450392E-02 1.5039647E-02 2.5501942E-02
       vertex 2.0473473E-02 1.4917865E-02 2.5501942E-02
       vertex 2.0705725E-02 1.5062125E-02 2.5501942E-02
    endloop
endfacet
facet normal  -2.401867E-14 -1.798200E-14 1.0          
    outer loop
       vertex 2.0321030E-02 1.5019497E-02 2.5501942E-02
       vertex 2.0377289E-02 1.4944351E-02 2.5501942E-02
       vertex 2.0450392E-02 1.5039647E-02 2.5501942E-02
    endloop
endfacet
facet normal  -2.713169E-14 2.0035695E-15 1.0          
    outer loop
       vertex 2.0328215E-02 1.5116794E-02 2.5501942E-02
       vertex 2.0321030E-02 1.5019497E-02 2.5501942E-02
       vertex 2.0450392E-02 1.5039647E-02 2.5501942E-02
    endloop
endfacet
facet normal  4.9095187E-14 -2.096264E-14 1.0          
    outer loop
       vertex 2.0372908E-02 1.5221466E-02 2.5501942E-02
       vertex 2.0328215E-02 1.5116794E-02 2.5501942E-02
       vertex 2.0498662E-02 1.5184975E-02 2.5501942E-02
    endloop
endfacet
facet normal  1.3909136E-14 6.6999926E-14 1.0          
    outer loop
       vertex 2.0498662E-02 1.5184975E-02 2.5501942E-02
       vertex 2.0328215E-02 1.5116794E-02 2.5501942E-02
       vertex 2.0450392E-02 1.5039647E-02 2.5501942E-02
    endloop
endfacet
facet normal  4.7267037E-14 -2.726269E-14 1.0          
    outer loop
       vertex 2.0429146E-02 1.5318970E-02 2.5501942E-02
       vertex 2.0372908E-02 1.5221466E-02 2.5501942E-02
       vertex 2.0498662E-02 1.5184975E-02 2.5501942E-02
    endloop
endfacet
facet normal  5.6503646E-14 -2.247077E-14 1.0          
    outer loop
       vertex 2.0551714E-02 1.5318375E-02 2.5501942E-02
       vertex 2.0429146E-02 1.5318970E-02 2.5501942E-02
       vertex 2.0498662E-02 1.5184975E-02 2.5501942E-02
    endloop
endfacet
facet normal  1.9746998E-14 -1.868250E-14 1.0          
    outer loop
       vertex 2.0598875E-02 1.5537437E-02 2.5501942E-02
       vertex 2.0541147E-02 1.5476420E-02 2.5501942E-02
       vertex 2.0639444E-02 1.5394613E-02 2.5501942E-02
    endloop
endfacet
facet normal  -1.317378E-15 -4.399263E-14 1.0          
    outer loop
       vertex 2.0639444E-02 1.5394613E-02 2.5501942E-02
       vertex 2.0541147E-02 1.5476420E-02 2.5501942E-02
       vertex 2.0551714E-02 1.5318375E-02 2.5501942E-02
    endloop
endfacet
facet normal  5.0160096E-14 -6.564467E-14 1.0          
    outer loop
       vertex 2.0672113E-02 1.5593400E-02 2.5501942E-02
       vertex 2.0598875E-02 1.5537437E-02 2.5501942E-02
       vertex 2.0722539E-02 1.5473375E-02 2.5501942E-02
    endloop
endfacet
facet normal  8.3932834E-14 -4.505788E-16 1.0          
    outer loop
       vertex 2.0722539E-02 1.5473375E-02 2.5501942E-02
       vertex 2.0598875E-02 1.5537437E-02 2.5501942E-02
       vertex 2.0639444E-02 1.5394613E-02 2.5501942E-02
    endloop
endfacet
facet normal  1.6290381E-14 -2.858976E-14 1.0          
    outer loop
       vertex 2.0756075E-02 1.5641241E-02 2.5501942E-02
       vertex 2.0672113E-02 1.5593400E-02 2.5501942E-02
       vertex 2.0796978E-02 1.5543195E-02 2.5501942E-02
    endloop
endfacet
facet normal  -8.520990E-15 -9.029821E-14 1.0          
    outer loop
       vertex 2.0796978E-02 1.5543195E-02 2.5501942E-02
       vertex 2.0672113E-02 1.5593400E-02 2.5501942E-02
       vertex 2.0722539E-02 1.5473375E-02 2.5501942E-02
    endloop
endfacet
facet normal  0.0           0.0           1.0          
    outer loop
       vertex 2.0846008E-02 1.5677985E-02 2.5501942E-02
       vertex 2.0756075E-02 1.5641241E-02 2.5501942E-02
       vertex 2.0884984E-02 1.5608106E-02 2.5501942E-02
    endloop
endfacet
facet normal  -1.018819E-14 -3.963627E-14 1.0          
    outer loop
       vertex 2.0884984E-02 1.5608106E-02 2.5501942E-02
       vertex 2.0756075E-02 1.5641241E-02 2.5501942E-02
       vertex 2.0796978E-02 1.5543195E-02 2.5501942E-02
    endloop
endfacet
facet normal  0.0           0.0           1.0          
    outer loop
       vertex 2.0925007E-02 1.5684246E-02 2.5501942E-02
       vertex 2.0846008E-02 1.5677985E-02 2.5501942E-02
       vertex 2.0884984E-02 1.5608106E-02 2.5501942E-02
    endloop
endfacet
facet normal  0.0           0.0           1.0          
    outer loop
       vertex 2.0976252E-02 1.5640570E-02 2.5501942E-02
       vertex 2.0925007E-02 1.5684246E-02 2.5501942E-02
       vertex 2.0884984E-02 1.5608106E-02 2.5501942E-02
    endloop
endfacet
facet normal  0.0           0.0           1.0          
    outer loop
       vertex 2.0995363E-02 1.5554836E-02 2.5501942E-02
       vertex 2.0976252E-02 1.5640570E-02 2.5501942E-02
       vertex 2.0884984E-02 1.5608106E-02 2.5501942E-02
    endloop
endfacet
facet normal  3.8867045E-14 -5.681005E-15 1.0          
    outer loop
       vertex 2.0977821E-02 1.5434822E-02 2.5501942E-02
       vertex 2.0995363E-02 1.5554836E-02 2.5501942E-02
       vertex 2.0899691E-02 1.5510999E-02 2.5501942E-02
    endloop
endfacet
facet normal  1.8602276E-14 3.8545408E-14 1.0          
    outer loop
       vertex 2.0899691E-02 1.5510999E-02 2.5501942E-02
       vertex 2.0995363E-02 1.5554836E-02 2.5501942E-02
       vertex 2.0884984E-02 1.5608106E-02 2.5501942E-02
    endloop
endfacet
facet normal  0.0           0.0           1.0          
    outer loop
       vertex 2.0921534E-02 1.5301412E-02 2.5501942E-02
       vertex 2.0977821E-02 1.5434822E-02 2.5501942E-02
       vertex 2.0846335E-02 1.5427455E-02 2.5501942E-02
    endloop
endfacet
facet normal  2.4130786E-15 -4.306971E-14 1.0          
    outer loop
       vertex 2.0846335E-02 1.5427455E-02 2.5501942E-02
       vertex 2.0977821E-02 1.5434822E-02 2.5501942E-02
       vertex 2.0899691E-02 1.5510999E-02 2.5501942E-02
    endloop
endfacet
facet normal  -1.949446E-14 1.5057606E-14 1.0          
    outer loop
       vertex 2.0824221E-02 1.5175425E-02 2.5501942E-02
       vertex 2.0921534E-02 1.5301412E-02 2.5501942E-02
       vertex 2.0770192E-02 1.5335888E-02 2.5501942E-02
    endloop
endfacet
facet normal  -2.653044E-14 -1.582820E-14 1.0          
    outer loop
       vertex 2.0770192E-02 1.5335888E-02 2.5501942E-02
       vertex 2.0921534E-02 1.5301412E-02 2.5501942E-02
       vertex 2.0846335E-02 1.5427455E-02 2.5501942E-02
    endloop
endfacet
facet normal  0.0           0.0           1.0          
    outer loop
       vertex 2.0705725E-02 1.5062125E-02 2.5501942E-02
       vertex 2.0824221E-02 1.5175425E-02 2.5501942E-02
       vertex 2.0664978E-02 1.5244338E-02 2.5501942E-02
    endloop
endfacet
facet normal  1.0952822E-14 2.5309240E-14 1.0          
    outer loop
       vertex 2.0664978E-02 1.5244338E-02 2.5501942E-02
       vertex 2.0824221E-02 1.5175425E-02 2.5501942E-02
       vertex 2.0770192E-02 1.5335888E-02 2.5501942E-02
    endloop
endfacet
facet normal  7.5022294E-15 6.9127956E-14 1.0          
    outer loop
       vertex 2.0498662E-02 1.5184975E-02 2.5501942E-02
       vertex 2.0450392E-02 1.5039647E-02 2.5501942E-02
       vertex 2.0705725E-02 1.5062125E-02 2.5501942E-02
    endloop
endfacet
facet normal  -3.863717E-14 -8.640036E-15 1.0          
    outer loop
       vertex 2.0498662E-02 1.5184975E-02 2.5501942E-02
       vertex 2.0705725E-02 1.5062125E-02 2.5501942E-02
       vertex 2.0664978E-02 1.5244338E-02 2.5501942E-02
    endloop
endfacet
facet normal  -4.862300E-14 1.9336735E-14 1.0          
    outer loop
       vertex 2.0551714E-02 1.5318375E-02 2.5501942E-02
       vertex 2.0498662E-02 1.5184975E-02 2.5501942E-02
       vertex 2.0664978E-02 1.5244338E-02 2.5501942E-02
    endloop
endfacet
facet normal  -5.916585E-14 2.6767276E-14 1.0          
    outer loop
       vertex 2.0899691E-02 1.5510999E-02 2.5501942E-02
       vertex 2.0884984E-02 1.5608106E-02 2.5501942E-02
       vertex 2.0796978E-02 1.5543195E-02 2.5501942E-02
    endloop
endfacet
facet normal  -5.194020E-14 1.4261971E-14 1.0          
    outer loop
       vertex 2.0639444E-02 1.5394613E-02 2.5501942E-02
       vertex 2.0551714E-02 1.5318375E-02 2.5501942E-02
       vertex 2.0664978E-02 1.5244338E-02 2.5501942E-02
    endloop
endfacet
facet normal  1.1226295E-14 2.4994950E-14 1.0          
    outer loop
       vertex 2.0639444E-02 1.5394613E-02 2.5501942E-02
       vertex 2.0664978E-02 1.5244338E-02 2.5501942E-02
       vertex 2.0770192E-02 1.5335888E-02 2.5501942E-02
    endloop
endfacet
facet normal  2.6847364E-14 5.9774713E-14 1.0          
    outer loop
       vertex 2.0722539E-02 1.5473375E-02 2.5501942E-02
       vertex 2.0639444E-02 1.5394613E-02 2.5501942E-02
       vertex 2.0770192E-02 1.5335888E-02 2.5501942E-02
    endloop
endfacet
facet normal  -7.499790E-14 2.4474961E-14 1.0          
    outer loop
       vertex 2.0722539E-02 1.5473375E-02 2.5501942E-02
       vertex 2.0770192E-02 1.5335888E-02 2.5501942E-02
       vertex 2.0846335E-02 1.5427455E-02 2.5501942E-02
    endloop
endfacet
facet normal  -8.666643E-14 -6.982328E-15 1.0          
    outer loop
       vertex 2.0846335E-02 1.5427455E-02 2.5501942E-02
       vertex 2.0796978E-02 1.5543195E-02 2.5501942E-02
       vertex 2.0722539E-02 1.5473375E-02 2.5501942E-02
    endloop
endfacet
facet normal  -6.713396E-14 1.3472298E-15 1.0          
    outer loop
       vertex 2.0846335E-02 1.5427455E-02 2.5501942E-02
       vertex 2.0899691E-02 1.5510999E-02 2.5501942E-02
       vertex 2.0796978E-02 1.5543195E-02 2.5501942E-02
    endloop
endfacet
facet normal  5.6425623E-14 -3.856279E-14 1.0          
    outer loop
       vertex 2.0429146E-02 1.5318970E-02 2.5501942E-02
       vertex 2.0551714E-02 1.5318375E-02 2.5501942E-02
       vertex 2.0488152E-02 1.5405308E-02 2.5501942E-02
    endloop
endfacet
facet normal  5.4063392E-14 -4.028998E-14 1.0          
    outer loop
       vertex 2.0488152E-02 1.5405308E-02 2.5501942E-02
       vertex 2.0551714E-02 1.5318375E-02 2.5501942E-02
       vertex 2.0541147E-02 1.5476420E-02 2.5501942E-02
    endloop
endfacet
endsolid inlet

