solid outlet8
facet normal  0.0           0.0           1.0          
    outer loop
       vertex 2.0000242E-02 2.4622486E-02 4.4383662E-02
       vertex 1.9940146E-02 2.4653545E-02 4.4383662E-02
       vertex 1.9922393E-02 2.4570975E-02 4.4383662E-02
    endloop
endfacet
facet normal  0.0           0.0           1.0          
    outer loop
       vertex 1.9922393E-02 2.4570975E-02 4.4383662E-02
       vertex 1.9940146E-02 2.4653545E-02 4.4383662E-02
       vertex 1.9879513E-02 2.4626842E-02 4.4383662E-02
    endloop
endfacet
facet normal  0.0           0.0           1.0          
    outer loop
       vertex 1.9922393E-02 2.4570975E-02 4.4383662E-02
       vertex 1.9879513E-02 2.4626842E-02 4.4383662E-02
       vertex 1.9826275E-02 2.4496611E-02 4.4383662E-02
    endloop
endfacet
facet normal  1.1861287E-13 1.4186100E-13 1.0          
    outer loop
       vertex 2.0051778E-02 2.4579396E-02 4.4383662E-02
       vertex 2.0000242E-02 2.4622486E-02 4.4383662E-02
       vertex 1.9984968E-02 2.4537431E-02 4.4383662E-02
    endloop
endfacet
facet normal  -1.225196E-13 1.8516297E-13 1.0          
    outer loop
       vertex 1.9984968E-02 2.4537431E-02 4.4383662E-02
       vertex 2.0000242E-02 2.4622486E-02 4.4383662E-02
       vertex 1.9922393E-02 2.4570975E-02 4.4383662E-02
    endloop
endfacet
facet normal  1.9071418E-13 1.6013727E-13 1.0          
    outer loop
       vertex 2.0095374E-02 2.4527476E-02 4.4383662E-02
       vertex 2.0051778E-02 2.4579396E-02 4.4383662E-02
       vertex 2.0035620E-02 2.4511978E-02 4.4383662E-02
    endloop
endfacet
facet normal  9.2320553E-14 1.8371952E-13 1.0          
    outer loop
       vertex 2.0035620E-02 2.4511978E-02 4.4383662E-02
       vertex 2.0051778E-02 2.4579396E-02 4.4383662E-02
       vertex 1.9984968E-02 2.4537431E-02 4.4383662E-02
    endloop
endfacet
facet normal  0.0           0.0           1.0          
    outer loop
       vertex 2.0131565E-02 2.4470061E-02 4.4383662E-02
       vertex 2.0095374E-02 2.4527476E-02 4.4383662E-02
       vertex 2.0063035E-02 2.4459274E-02 4.4383662E-02
    endloop
endfacet
facet normal  2.6481519E-13 -1.255653E-13 1.0          
    outer loop
       vertex 2.0063035E-02 2.4459274E-02 4.4383662E-02
       vertex 2.0095374E-02 2.4527476E-02 4.4383662E-02
       vertex 2.0035620E-02 2.4511978E-02 4.4383662E-02
    endloop
endfacet
facet normal  0.0           0.0           1.0          
    outer loop
       vertex 2.0151667E-02 2.4409356E-02 4.4383662E-02
       vertex 2.0131565E-02 2.4470061E-02 4.4383662E-02
       vertex 2.0098903E-02 2.4400838E-02 4.4383662E-02
    endloop
endfacet
facet normal  0.0           0.0           1.0          
    outer loop
       vertex 2.0098903E-02 2.4400838E-02 4.4383662E-02
       vertex 2.0131565E-02 2.4470061E-02 4.4383662E-02
       vertex 2.0063035E-02 2.4459274E-02 4.4383662E-02
    endloop
endfacet
facet normal  0.0           0.0           1.0          
    outer loop
       vertex 2.0147081E-02 2.4347573E-02 4.4383662E-02
       vertex 2.0151667E-02 2.4409356E-02 4.4383662E-02
       vertex 2.0098903E-02 2.4400838E-02 4.4383662E-02
    endloop
endfacet
facet normal  3.4827372E-13 -1.784142E-13 1.0          
    outer loop
       vertex 2.0121072E-02 2.4296803E-02 4.4383662E-02
       vertex 2.0147081E-02 2.4347573E-02 4.4383662E-02
       vertex 2.0080595E-02 2.4334467E-02 4.4383662E-02
    endloop
endfacet
facet normal  2.6572312E-13 2.4034349E-13 1.0          
    outer loop
       vertex 2.0080595E-02 2.4334467E-02 4.4383662E-02
       vertex 2.0147081E-02 2.4347573E-02 4.4383662E-02
       vertex 2.0098903E-02 2.4400838E-02 4.4383662E-02
    endloop
endfacet
facet normal  2.0684426E-13 -3.304033E-13 1.0          
    outer loop
       vertex 2.0076927E-02 2.4269167E-02 4.4383662E-02
       vertex 2.0121072E-02 2.4296803E-02 4.4383662E-02
       vertex 2.0080595E-02 2.4334467E-02 4.4383662E-02
    endloop
endfacet
facet normal  0.0           0.0           1.0          
    outer loop
       vertex 2.0022248E-02 2.4258520E-02 4.4383662E-02
       vertex 2.0076927E-02 2.4269167E-02 4.4383662E-02
       vertex 2.0021865E-02 2.4312809E-02 4.4383662E-02
    endloop
endfacet
facet normal  -2.419017E-13 -3.051968E-13 1.0          
    outer loop
       vertex 2.0021865E-02 2.4312809E-02 4.4383662E-02
       vertex 2.0076927E-02 2.4269167E-02 4.4383662E-02
       vertex 2.0080595E-02 2.4334467E-02 4.4383662E-02
    endloop
endfacet
facet normal  -7.004664E-16 -1.555926E-13 1.0          
    outer loop
       vertex 1.9964617E-02 2.4258779E-02 4.4383662E-02
       vertex 2.0022248E-02 2.4258520E-02 4.4383662E-02
       vertex 1.9983908E-02 2.4303289E-02 4.4383662E-02
    endloop
endfacet
facet normal  1.8248533E-13 1.2857636E-15 1.0          
    outer loop
       vertex 1.9983908E-02 2.4303289E-02 4.4383662E-02
       vertex 2.0022248E-02 2.4258520E-02 4.4383662E-02
       vertex 2.0021865E-02 2.4312809E-02 4.4383662E-02
    endloop
endfacet
facet normal  1.9304470E-14 1.1076664E-13 1.0          
    outer loop
       vertex 1.9904176E-02 2.4269313E-02 4.4383662E-02
       vertex 1.9964617E-02 2.4258779E-02 4.4383662E-02
       vertex 1.9940007E-02 2.4325713E-02 4.4383662E-02
    endloop
endfacet
facet normal  -3.240167E-13 -1.546750E-14 1.0          
    outer loop
       vertex 1.9940007E-02 2.4325713E-02 4.4383662E-02
       vertex 1.9964617E-02 2.4258779E-02 4.4383662E-02
       vertex 1.9983908E-02 2.4303289E-02 4.4383662E-02
    endloop
endfacet
facet normal  0.0           0.0           1.0          
    outer loop
       vertex 1.9841146E-02 2.4289573E-02 4.4383662E-02
       vertex 1.9904176E-02 2.4269313E-02 4.4383662E-02
       vertex 1.9879388E-02 2.4338142E-02 4.4383662E-02
    endloop
endfacet
facet normal  1.2359276E-13 4.4512423E-14 1.0          
    outer loop
       vertex 1.9879388E-02 2.4338142E-02 4.4383662E-02
       vertex 1.9904176E-02 2.4269313E-02 4.4383662E-02
       vertex 1.9940007E-02 2.4325713E-02 4.4383662E-02
    endloop
endfacet
facet normal  0.0           0.0           1.0          
    outer loop
       vertex 1.9805252E-02 2.4353840E-02 4.4383662E-02
       vertex 1.9841146E-02 2.4289573E-02 4.4383662E-02
       vertex 1.9879388E-02 2.4338142E-02 4.4383662E-02
    endloop
endfacet
facet normal  -1.279045E-13 1.8833761E-14 1.0          
    outer loop
       vertex 1.9826275E-02 2.4496611E-02 4.4383662E-02
       vertex 1.9805252E-02 2.4353840E-02 4.4383662E-02
       vertex 1.9867845E-02 2.4410496E-02 4.4383662E-02
    endloop
endfacet
facet normal  -2.101705E-14 -9.925370E-14 1.0          
    outer loop
       vertex 1.9867845E-02 2.4410496E-02 4.4383662E-02
       vertex 1.9805252E-02 2.4353840E-02 4.4383662E-02
       vertex 1.9879388E-02 2.4338142E-02 4.4383662E-02
    endloop
endfacet
facet normal  0.0           0.0           1.0          
    outer loop
       vertex 1.9922393E-02 2.4570975E-02 4.4383662E-02
       vertex 1.9826275E-02 2.4496611E-02 4.4383662E-02
       vertex 1.9913615E-02 2.4476721E-02 4.4383662E-02
    endloop
endfacet
facet normal  2.0616299E-14 9.0529990E-14 1.0          
    outer loop
       vertex 1.9913615E-02 2.4476721E-02 4.4383662E-02
       vertex 1.9826275E-02 2.4496611E-02 4.4383662E-02
       vertex 1.9867845E-02 2.4410496E-02 4.4383662E-02
    endloop
endfacet
facet normal  -2.112336E-13 1.9670728E-14 1.0          
    outer loop
       vertex 1.9984968E-02 2.4537431E-02 4.4383662E-02
       vertex 1.9922393E-02 2.4570975E-02 4.4383662E-02
       vertex 1.9913615E-02 2.4476721E-02 4.4383662E-02
    endloop
endfacet
facet normal  0.0           0.0           1.0          
    outer loop
       vertex 2.0035620E-02 2.4511978E-02 4.4383662E-02
       vertex 1.9984968E-02 2.4537431E-02 4.4383662E-02
       vertex 1.9990041E-02 2.4448575E-02 4.4383662E-02
    endloop
endfacet
facet normal  -1.854852E-13 -1.059134E-14 1.0          
    outer loop
       vertex 1.9990041E-02 2.4448575E-02 4.4383662E-02
       vertex 1.9984968E-02 2.4537431E-02 4.4383662E-02
       vertex 1.9913615E-02 2.4476721E-02 4.4383662E-02
    endloop
endfacet
facet normal  2.1251574E-13 -1.527704E-13 1.0          
    outer loop
       vertex 2.0063035E-02 2.4459274E-02 4.4383662E-02
       vertex 2.0035620E-02 2.4511978E-02 4.4383662E-02
       vertex 1.9990041E-02 2.4448575E-02 4.4383662E-02
    endloop
endfacet
facet normal  -2.978930E-14 -1.006531E-13 1.0          
    outer loop
       vertex 1.9867845E-02 2.4410496E-02 4.4383662E-02
       vertex 1.9879388E-02 2.4338142E-02 4.4383662E-02
       vertex 1.9925914E-02 2.4393310E-02 4.4383662E-02
    endloop
endfacet
facet normal  7.5604978E-14 -1.895372E-13 1.0          
    outer loop
       vertex 1.9925914E-02 2.4393310E-02 4.4383662E-02
       vertex 1.9879388E-02 2.4338142E-02 4.4383662E-02
       vertex 1.9940007E-02 2.4325713E-02 4.4383662E-02
    endloop
endfacet
facet normal  2.5744334E-14 8.6985804E-14 1.0          
    outer loop
       vertex 1.9913615E-02 2.4476721E-02 4.4383662E-02
       vertex 1.9867845E-02 2.4410496E-02 4.4383662E-02
       vertex 1.9925914E-02 2.4393310E-02 4.4383662E-02
    endloop
endfacet
facet normal  -1.596149E-13 5.9655210E-14 1.0          
    outer loop
       vertex 1.9990041E-02 2.4448575E-02 4.4383662E-02
       vertex 1.9913615E-02 2.4476721E-02 4.4383662E-02
       vertex 1.9925914E-02 2.4393310E-02 4.4383662E-02
    endloop
endfacet
facet normal  1.5428820E-13 -1.731330E-13 1.0          
    outer loop
       vertex 1.9925914E-02 2.4393310E-02 4.4383662E-02
       vertex 1.9940007E-02 2.4325713E-02 4.4383662E-02
       vertex 1.9980660E-02 2.4361941E-02 4.4383662E-02
    endloop
endfacet
facet normal  -2.009427E-13 2.2548588E-13 1.0          
    outer loop
       vertex 1.9980660E-02 2.4361941E-02 4.4383662E-02
       vertex 1.9940007E-02 2.4325713E-02 4.4383662E-02
       vertex 1.9983908E-02 2.4303289E-02 4.4383662E-02
    endloop
endfacet
facet normal  1.0904480E-13 -2.520917E-13 1.0          
    outer loop
       vertex 1.9990041E-02 2.4448575E-02 4.4383662E-02
       vertex 1.9925914E-02 2.4393310E-02 4.4383662E-02
       vertex 1.9980660E-02 2.4361941E-02 4.4383662E-02
    endloop
endfacet
facet normal  1.2176995E-13 2.4335622E-13 1.0          
    outer loop
       vertex 1.9980660E-02 2.4361941E-02 4.4383662E-02
       vertex 1.9983908E-02 2.4303289E-02 4.4383662E-02
       vertex 2.0021865E-02 2.4312809E-02 4.4383662E-02
    endloop
endfacet
facet normal  1.6994577E-13 1.3765496E-13 1.0          
    outer loop
       vertex 2.0063035E-02 2.4459274E-02 4.4383662E-02
       vertex 1.9990041E-02 2.4448575E-02 4.4383662E-02
       vertex 2.0037415E-02 2.4390089E-02 4.4383662E-02
    endloop
endfacet
facet normal  2.0382603E-13 1.2510838E-13 1.0          
    outer loop
       vertex 2.0098903E-02 2.4400838E-02 4.4383662E-02
       vertex 2.0063035E-02 2.4459274E-02 4.4383662E-02
       vertex 2.0037415E-02 2.4390089E-02 4.4383662E-02
    endloop
endfacet
facet normal  1.7952519E-13 2.6412057E-13 1.0          
    outer loop
       vertex 2.0098903E-02 2.4400838E-02 4.4383662E-02
       vertex 2.0037415E-02 2.4390089E-02 4.4383662E-02
       vertex 2.0080595E-02 2.4334467E-02 4.4383662E-02
    endloop
endfacet
facet normal  -3.113245E-13 -1.169382E-13 1.0          
    outer loop
       vertex 2.0080595E-02 2.4334467E-02 4.4383662E-02
       vertex 2.0037415E-02 2.4390089E-02 4.4383662E-02
       vertex 2.0021865E-02 2.4312809E-02 4.4383662E-02
    endloop
endfacet
facet normal  -3.085071E-13 -1.175051E-13 1.0          
    outer loop
       vertex 2.0021865E-02 2.4312809E-02 4.4383662E-02
       vertex 2.0037415E-02 2.4390089E-02 4.4383662E-02
       vertex 1.9980660E-02 2.4361941E-02 4.4383662E-02
    endloop
endfacet
facet normal  -2.616668E-13 -2.119484E-13 1.0          
    outer loop
       vertex 1.9990041E-02 2.4448575E-02 4.4383662E-02
       vertex 1.9980660E-02 2.4361941E-02 4.4383662E-02
       vertex 2.0037415E-02 2.4390089E-02 4.4383662E-02
    endloop
endfacet
endsolid outlet8

