solid outlet4
facet normal  2.4209527E-14 1.0210781E-13 1.0          
    outer loop
       vertex 2.2312836E-02 1.6184525E-02 3.5429739E-02
       vertex 2.2250565E-02 1.6199289E-02 3.5429739E-02
       vertex 2.2266026E-02 1.6127667E-02 3.5429739E-02
    endloop
endfacet
facet normal  -1.056945E-13 7.4065382E-14 1.0          
    outer loop
       vertex 2.2266026E-02 1.6127667E-02 3.5429739E-02
       vertex 2.2250565E-02 1.6199289E-02 3.5429739E-02
       vertex 2.2211159E-02 1.6143055E-02 3.5429739E-02
    endloop
endfacet
facet normal  -1.253381E-13 4.0265849E-15 1.0          
    outer loop
       vertex 2.2266026E-02 1.6127667E-02 3.5429739E-02
       vertex 2.2211159E-02 1.6143055E-02 3.5429739E-02
       vertex 2.2208544E-02 1.6061657E-02 3.5429739E-02
    endloop
endfacet
facet normal  1.8857555E-13 -2.693337E-13 1.0          
    outer loop
       vertex 2.2266026E-02 1.6127667E-02 3.5429739E-02
       vertex 2.2208544E-02 1.6061657E-02 3.5429739E-02
       vertex 2.2286452E-02 1.6064678E-02 3.5429739E-02
    endloop
endfacet
facet normal  1.7280007E-13 1.3746323E-13 1.0          
    outer loop
       vertex 2.2286452E-02 1.6064678E-02 3.5429739E-02
       vertex 2.2208544E-02 1.6061657E-02 3.5429739E-02
       vertex 2.2256778E-02 1.6001024E-02 3.5429739E-02
    endloop
endfacet
facet normal  -1.626906E-13 -2.164456E-13 1.0          
    outer loop
       vertex 2.2380101E-02 1.6133965E-02 3.5429739E-02
       vertex 2.2312836E-02 1.6184525E-02 3.5429739E-02
       vertex 2.2319350E-02 1.6115512E-02 3.5429739E-02
    endloop
endfacet
facet normal  3.5212136E-13 -1.678544E-13 1.0          
    outer loop
       vertex 2.2319350E-02 1.6115512E-02 3.5429739E-02
       vertex 2.2312836E-02 1.6184525E-02 3.5429739E-02
       vertex 2.2266026E-02 1.6127667E-02 3.5429739E-02
    endloop
endfacet
facet normal  -1.403999E-13 2.8346924E-13 1.0          
    outer loop
       vertex 2.2286452E-02 1.6064678E-02 3.5429739E-02
       vertex 2.2256778E-02 1.6001024E-02 3.5429739E-02
       vertex 2.2335469E-02 1.6015521E-02 3.5429739E-02
    endloop
endfacet
facet normal  -6.849006E-14 -1.068730E-13 1.0          
    outer loop
       vertex 2.2335469E-02 1.6015521E-02 3.5429739E-02
       vertex 2.2256778E-02 1.6001024E-02 3.5429739E-02
       vertex 2.2325954E-02 1.5956692E-02 3.5429739E-02
    endloop
endfacet
facet normal  -1.642931E-13 -1.747827E-13 1.0          
    outer loop
       vertex 2.2434584E-02 1.6082752E-02 3.5429739E-02
       vertex 2.2380101E-02 1.6133965E-02 3.5429739E-02
       vertex 2.2358933E-02 1.6074463E-02 3.5429739E-02
    endloop
endfacet
facet normal  -1.766849E-13 -1.703743E-13 1.0          
    outer loop
       vertex 2.2358933E-02 1.6074463E-02 3.5429739E-02
       vertex 2.2380101E-02 1.6133965E-02 3.5429739E-02
       vertex 2.2319350E-02 1.6115512E-02 3.5429739E-02
    endloop
endfacet
facet normal  9.2639217E-14 8.2834224E-14 1.0          
    outer loop
       vertex 2.2475223E-02 1.6037302E-02 3.5429739E-02
       vertex 2.2434584E-02 1.6082752E-02 3.5429739E-02
       vertex 2.2406184E-02 1.6030745E-02 3.5429739E-02
    endloop
endfacet
facet normal  -2.106683E-13 2.4846477E-13 1.0          
    outer loop
       vertex 2.2406184E-02 1.6030745E-02 3.5429739E-02
       vertex 2.2434584E-02 1.6082752E-02 3.5429739E-02
       vertex 2.2358933E-02 1.6074463E-02 3.5429739E-02
    endloop
endfacet
facet normal  -2.315935E-13 -1.789968E-13 1.0          
    outer loop
       vertex 2.2501047E-02 1.6003890E-02 3.5429739E-02
       vertex 2.2475223E-02 1.6037302E-02 3.5429739E-02
       vertex 2.2447673E-02 1.5995416E-02 3.5429739E-02
    endloop
endfacet
facet normal  1.4077161E-13 -4.239102E-13 1.0          
    outer loop
       vertex 2.2447673E-02 1.5995416E-02 3.5429739E-02
       vertex 2.2475223E-02 1.6037302E-02 3.5429739E-02
       vertex 2.2406184E-02 1.6030745E-02 3.5429739E-02
    endloop
endfacet
facet normal  3.5748550E-13 1.3247048E-13 1.0          
    outer loop
       vertex 2.2512012E-02 1.5974299E-02 3.5429739E-02
       vertex 2.2501047E-02 1.6003890E-02 3.5429739E-02
       vertex 2.2477122E-02 1.5963692E-02 3.5429739E-02
    endloop
endfacet
facet normal  -3.476746E-13 5.5216749E-13 1.0          
    outer loop
       vertex 2.2477122E-02 1.5963692E-02 3.5429739E-02
       vertex 2.2501047E-02 1.6003890E-02 3.5429739E-02
       vertex 2.2447673E-02 1.5995416E-02 3.5429739E-02
    endloop
endfacet
facet normal  4.1149701E-13 -4.519078E-14 1.0          
    outer loop
       vertex 2.2508265E-02 1.5940183E-02 3.5429739E-02
       vertex 2.2512012E-02 1.5974299E-02 3.5429739E-02
       vertex 2.2477122E-02 1.5963692E-02 3.5429739E-02
    endloop
endfacet
facet normal  0.0           0.0           1.0          
    outer loop
       vertex 2.2493023E-02 1.5912103E-02 3.5429739E-02
       vertex 2.2508265E-02 1.5940183E-02 3.5429739E-02
       vertex 2.2470812E-02 1.5929243E-02 3.5429739E-02
    endloop
endfacet
facet normal  1.2431736E-13 -4.256209E-13 1.0          
    outer loop
       vertex 2.2470812E-02 1.5929243E-02 3.5429739E-02
       vertex 2.2508265E-02 1.5940183E-02 3.5429739E-02
       vertex 2.2477122E-02 1.5963692E-02 3.5429739E-02
    endloop
endfacet
facet normal  0.0           0.0           1.0          
    outer loop
       vertex 2.2469469E-02 1.5900590E-02 3.5429739E-02
       vertex 2.2493023E-02 1.5912103E-02 3.5429739E-02
       vertex 2.2470812E-02 1.5929243E-02 3.5429739E-02
    endloop
endfacet
facet normal  0.0           0.0           1.0          
    outer loop
       vertex 2.2434763E-02 1.5904822E-02 3.5429739E-02
       vertex 2.2469469E-02 1.5900590E-02 3.5429739E-02
       vertex 2.2470812E-02 1.5929243E-02 3.5429739E-02
    endloop
endfacet
facet normal  -6.412190E-14 -1.620094E-13 1.0          
    outer loop
       vertex 2.2386111E-02 1.5924078E-02 3.5429739E-02
       vertex 2.2434763E-02 1.5904822E-02 3.5429739E-02
       vertex 2.2432301E-02 1.5948626E-02 3.5429739E-02
    endloop
endfacet
facet normal  1.0337500E-13 -1.525988E-13 1.0          
    outer loop
       vertex 2.2432301E-02 1.5948626E-02 3.5429739E-02
       vertex 2.2434763E-02 1.5904822E-02 3.5429739E-02
       vertex 2.2470812E-02 1.5929243E-02 3.5429739E-02
    endloop
endfacet
facet normal  0.0           0.0           1.0          
    outer loop
       vertex 2.2325954E-02 1.5956692E-02 3.5429739E-02
       vertex 2.2386111E-02 1.5924078E-02 3.5429739E-02
       vertex 2.2388230E-02 1.5979201E-02 3.5429739E-02
    endloop
endfacet
facet normal  -1.533561E-13 5.8957541E-15 1.0          
    outer loop
       vertex 2.2388230E-02 1.5979201E-02 3.5429739E-02
       vertex 2.2386111E-02 1.5924078E-02 3.5429739E-02
       vertex 2.2432301E-02 1.5948626E-02 3.5429739E-02
    endloop
endfacet
facet normal  4.5279064E-14 -1.252742E-13 1.0          
    outer loop
       vertex 2.2335469E-02 1.6015521E-02 3.5429739E-02
       vertex 2.2325954E-02 1.5956692E-02 3.5429739E-02
       vertex 2.2388230E-02 1.5979201E-02 3.5429739E-02
    endloop
endfacet
facet normal  -2.067476E-14 -3.990630E-13 1.0          
    outer loop
       vertex 2.2432301E-02 1.5948626E-02 3.5429739E-02
       vertex 2.2470812E-02 1.5929243E-02 3.5429739E-02
       vertex 2.2477122E-02 1.5963692E-02 3.5429739E-02
    endloop
endfacet
facet normal  -3.421439E-13 5.5730161E-13 1.0          
    outer loop
       vertex 2.2432301E-02 1.5948626E-02 3.5429739E-02
       vertex 2.2477122E-02 1.5963692E-02 3.5429739E-02
       vertex 2.2447673E-02 1.5995416E-02 3.5429739E-02
    endloop
endfacet
facet normal  1.2313628E-13 4.0444384E-13 1.0          
    outer loop
       vertex 2.2432301E-02 1.5948626E-02 3.5429739E-02
       vertex 2.2447673E-02 1.5995416E-02 3.5429739E-02
       vertex 2.2388230E-02 1.5979201E-02 3.5429739E-02
    endloop
endfacet
facet normal  2.9855319E-13 -2.386144E-13 1.0          
    outer loop
       vertex 2.2388230E-02 1.5979201E-02 3.5429739E-02
       vertex 2.2447673E-02 1.5995416E-02 3.5429739E-02
       vertex 2.2406184E-02 1.6030745E-02 3.5429739E-02
    endloop
endfacet
facet normal  3.1331979E-14 -1.455348E-13 1.0          
    outer loop
       vertex 2.2335469E-02 1.6015521E-02 3.5429739E-02
       vertex 2.2388230E-02 1.5979201E-02 3.5429739E-02
       vertex 2.2406184E-02 1.6030745E-02 3.5429739E-02
    endloop
endfacet
facet normal  -8.316128E-14 3.8627808E-13 1.0          
    outer loop
       vertex 2.2335469E-02 1.6015521E-02 3.5429739E-02
       vertex 2.2406184E-02 1.6030745E-02 3.5429739E-02
       vertex 2.2358933E-02 1.6074463E-02 3.5429739E-02
    endloop
endfacet
facet normal  -5.038297E-14 3.7322974E-13 1.0          
    outer loop
       vertex 2.2335469E-02 1.6015521E-02 3.5429739E-02
       vertex 2.2358933E-02 1.6074463E-02 3.5429739E-02
       vertex 2.2286452E-02 1.6064678E-02 3.5429739E-02
    endloop
endfacet
facet normal  0.0           0.0           1.0          
    outer loop
       vertex 2.2358933E-02 1.6074463E-02 3.5429739E-02
       vertex 2.2319350E-02 1.6115512E-02 3.5429739E-02
       vertex 2.2286452E-02 1.6064678E-02 3.5429739E-02
    endloop
endfacet
facet normal  3.4019728E-13 -2.201659E-13 1.0          
    outer loop
       vertex 2.2286452E-02 1.6064678E-02 3.5429739E-02
       vertex 2.2319350E-02 1.6115512E-02 3.5429739E-02
       vertex 2.2266026E-02 1.6127667E-02 3.5429739E-02
    endloop
endfacet
endsolid outlet4

