solid outlet3
facet normal  0.0           0.0           1.0          
    outer loop
       vertex 1.9188261E-02 1.3492828E-02 3.9063210E-02
       vertex 1.9123682E-02 1.3505505E-02 3.9063210E-02
       vertex 1.9141473E-02 1.3447040E-02 3.9063210E-02
    endloop
endfacet
facet normal  0.0           0.0           1.0          
    outer loop
       vertex 1.9141473E-02 1.3447040E-02 3.9063210E-02
       vertex 1.9123682E-02 1.3505505E-02 3.9063210E-02
       vertex 1.9077293E-02 1.3443003E-02 3.9063210E-02
    endloop
endfacet
facet normal  1.8984069E-13 2.6995419E-13 1.0          
    outer loop
       vertex 1.9258644E-02 1.3443333E-02 3.9063210E-02
       vertex 1.9188261E-02 1.3492828E-02 3.9063210E-02
       vertex 1.9192713E-02 1.3412586E-02 3.9063210E-02
    endloop
endfacet
facet normal  -2.408064E-13 2.4606234E-13 1.0          
    outer loop
       vertex 1.9192713E-02 1.3412586E-02 3.9063210E-02
       vertex 1.9188261E-02 1.3492828E-02 3.9063210E-02
       vertex 1.9141473E-02 1.3447040E-02 3.9063210E-02
    endloop
endfacet
facet normal  -6.661104E-15 1.0589884E-13 1.0          
    outer loop
       vertex 1.9141473E-02 1.3447040E-02 3.9063210E-02
       vertex 1.9077293E-02 1.3443003E-02 3.9063210E-02
       vertex 1.9128764E-02 1.3380716E-02 3.9063210E-02
    endloop
endfacet
facet normal  -1.189984E-13 1.3067409E-14 1.0          
    outer loop
       vertex 1.9128764E-02 1.3380716E-02 3.9063210E-02
       vertex 1.9077293E-02 1.3443003E-02 3.9063210E-02
       vertex 1.9067677E-02 1.3355427E-02 3.9063210E-02
    endloop
endfacet
facet normal  -8.719099E-14 -6.376433E-14 1.0          
    outer loop
       vertex 1.9128764E-02 1.3380716E-02 3.9063210E-02
       vertex 1.9067677E-02 1.3355427E-02 3.9063210E-02
       vertex 1.9113539E-02 1.3292715E-02 3.9063210E-02
    endloop
endfacet
facet normal  4.8151029E-14 -8.718075E-14 1.0          
    outer loop
       vertex 1.9128764E-02 1.3380716E-02 3.9063210E-02
       vertex 1.9113539E-02 1.3292715E-02 3.9063210E-02
       vertex 1.9184490E-02 1.3331902E-02 3.9063210E-02
    endloop
endfacet
facet normal  0.0           0.0           1.0          
    outer loop
       vertex 1.9184490E-02 1.3331902E-02 3.9063210E-02
       vertex 1.9113539E-02 1.3292715E-02 3.9063210E-02
       vertex 1.9184685E-02 1.3247766E-02 3.9063210E-02
    endloop
endfacet
facet normal  0.0           0.0           1.0          
    outer loop
       vertex 1.9184490E-02 1.3331902E-02 3.9063210E-02
       vertex 1.9184685E-02 1.3247766E-02 3.9063210E-02
       vertex 1.9244881E-02 1.3289433E-02 3.9063210E-02
    endloop
endfacet
facet normal  0.0           0.0           1.0          
    outer loop
       vertex 1.9244881E-02 1.3289433E-02 3.9063210E-02
       vertex 1.9184685E-02 1.3247766E-02 3.9063210E-02
       vertex 1.9250734E-02 1.3213455E-02 3.9063210E-02
    endloop
endfacet
facet normal  1.2027432E-13 9.2665437E-15 1.0          
    outer loop
       vertex 1.9244881E-02 1.3289433E-02 3.9063210E-02
       vertex 1.9250734E-02 1.3213455E-02 3.9063210E-02
       vertex 1.9305456E-02 1.3252013E-02 3.9063210E-02
    endloop
endfacet
facet normal  3.5238044E-14 1.2995094E-13 1.0          
    outer loop
       vertex 1.9305456E-02 1.3252013E-02 3.9063210E-02
       vertex 1.9250734E-02 1.3213455E-02 3.9063210E-02
       vertex 1.9305979E-02 1.3198475E-02 3.9063210E-02
    endloop
endfacet
facet normal  -4.355004E-14 1.2918144E-13 1.0          
    outer loop
       vertex 1.9305456E-02 1.3252013E-02 3.9063210E-02
       vertex 1.9305979E-02 1.3198475E-02 3.9063210E-02
       vertex 1.9344564E-02 1.3211483E-02 3.9063210E-02
    endloop
endfacet
facet normal  -1.029118E-13 7.1901476E-14 1.0          
    outer loop
       vertex 1.9305456E-02 1.3252013E-02 3.9063210E-02
       vertex 1.9344564E-02 1.3211483E-02 3.9063210E-02
       vertex 1.9368326E-02 1.3245493E-02 3.9063210E-02
    endloop
endfacet
facet normal  -1.007920E-13 9.2342131E-14 1.0          
    outer loop
       vertex 1.9305456E-02 1.3252013E-02 3.9063210E-02
       vertex 1.9368326E-02 1.3245493E-02 3.9063210E-02
       vertex 1.9340834E-02 1.3290628E-02 3.9063210E-02
    endloop
endfacet
facet normal  -1.847338E-13 4.1211597E-14 1.0          
    outer loop
       vertex 1.9340834E-02 1.3290628E-02 3.9063210E-02
       vertex 1.9368326E-02 1.3245493E-02 3.9063210E-02
       vertex 1.9378994E-02 1.3293312E-02 3.9063210E-02
    endloop
endfacet
facet normal  -1.789680E-13 -4.075938E-14 1.0          
    outer loop
       vertex 1.9340834E-02 1.3290628E-02 3.9063210E-02
       vertex 1.9378994E-02 1.3293312E-02 3.9063210E-02
       vertex 1.9366955E-02 1.3346174E-02 3.9063210E-02
    endloop
endfacet
facet normal  -8.123916E-14 -8.671735E-14 1.0          
    outer loop
       vertex 1.9340834E-02 1.3290628E-02 3.9063210E-02
       vertex 1.9366955E-02 1.3346174E-02 3.9063210E-02
       vertex 1.9304417E-02 1.3324744E-02 3.9063210E-02
    endloop
endfacet
facet normal  -8.470907E-14 -7.659160E-14 1.0          
    outer loop
       vertex 1.9304417E-02 1.3324744E-02 3.9063210E-02
       vertex 1.9366955E-02 1.3346174E-02 3.9063210E-02
       vertex 1.9322521E-02 1.3395317E-02 3.9063210E-02
    endloop
endfacet
facet normal  1.5018856E-13 -1.368494E-13 1.0          
    outer loop
       vertex 1.9304417E-02 1.3324744E-02 3.9063210E-02
       vertex 1.9322521E-02 1.3395317E-02 3.9063210E-02
       vertex 1.9250532E-02 1.3367016E-02 3.9063210E-02
    endloop
endfacet
facet normal  6.3288298E-14 8.4195006E-14 1.0          
    outer loop
       vertex 1.9250532E-02 1.3367016E-02 3.9063210E-02
       vertex 1.9322521E-02 1.3395317E-02 3.9063210E-02
       vertex 1.9258644E-02 1.3443333E-02 3.9063210E-02
    endloop
endfacet
facet normal  2.8758708E-13 6.0353909E-14 1.0          
    outer loop
       vertex 1.9250532E-02 1.3367016E-02 3.9063210E-02
       vertex 1.9258644E-02 1.3443333E-02 3.9063210E-02
       vertex 1.9192713E-02 1.3412586E-02 3.9063210E-02
    endloop
endfacet
facet normal  1.1556947E-13 1.6504576E-15 1.0          
    outer loop
       vertex 1.9244881E-02 1.3289433E-02 3.9063210E-02
       vertex 1.9305456E-02 1.3252013E-02 3.9063210E-02
       vertex 1.9304417E-02 1.3324744E-02 3.9063210E-02
    endloop
endfacet
facet normal  0.0           0.0           1.0          
    outer loop
       vertex 1.9304417E-02 1.3324744E-02 3.9063210E-02
       vertex 1.9305456E-02 1.3252013E-02 3.9063210E-02
       vertex 1.9340834E-02 1.3290628E-02 3.9063210E-02
    endloop
endfacet
facet normal  1.7725165E-13 -1.023514E-13 1.0          
    outer loop
       vertex 1.9244881E-02 1.3289433E-02 3.9063210E-02
       vertex 1.9304417E-02 1.3324744E-02 3.9063210E-02
       vertex 1.9250532E-02 1.3367016E-02 3.9063210E-02
    endloop
endfacet
facet normal  -5.983171E-14 -8.508055E-14 1.0          
    outer loop
       vertex 1.9184490E-02 1.3331902E-02 3.9063210E-02
       vertex 1.9244881E-02 1.3289433E-02 3.9063210E-02
       vertex 1.9250532E-02 1.3367016E-02 3.9063210E-02
    endloop
endfacet
facet normal  3.3947813E-14 -2.614639E-13 1.0          
    outer loop
       vertex 1.9184490E-02 1.3331902E-02 3.9063210E-02
       vertex 1.9250532E-02 1.3367016E-02 3.9063210E-02
       vertex 1.9192713E-02 1.3412586E-02 3.9063210E-02
    endloop
endfacet
facet normal  -9.316848E-14 -2.485088E-13 1.0          
    outer loop
       vertex 1.9184490E-02 1.3331902E-02 3.9063210E-02
       vertex 1.9192713E-02 1.3412586E-02 3.9063210E-02
       vertex 1.9128764E-02 1.3380716E-02 3.9063210E-02
    endloop
endfacet
facet normal  -2.975712E-13 1.6164123E-13 1.0          
    outer loop
       vertex 1.9128764E-02 1.3380716E-02 3.9063210E-02
       vertex 1.9192713E-02 1.3412586E-02 3.9063210E-02
       vertex 1.9141473E-02 1.3447040E-02 3.9063210E-02
    endloop
endfacet
endsolid outlet3

