solid outlet5
facet normal  -8.996826E-15 -1.001962E-13 1.0          
    outer loop
       vertex 2.4122232E-02 2.1879787E-02 3.3978076E-02
       vertex 2.4064116E-02 2.1885006E-02 3.3978076E-02
       vertex 2.4119357E-02 2.1810793E-02 3.3978076E-02
    endloop
endfacet
facet normal  8.7825840E-14 -2.812691E-14 1.0          
    outer loop
       vertex 2.4119357E-02 2.1810793E-02 3.3978076E-02
       vertex 2.4064116E-02 2.1885006E-02 3.3978076E-02
       vertex 2.4036951E-02 2.1800182E-02 3.3978076E-02
    endloop
endfacet
facet normal  -6.874875E-14 -9.770557E-14 1.0          
    outer loop
       vertex 2.4193305E-02 2.1829779E-02 3.3978076E-02
       vertex 2.4122232E-02 2.1879787E-02 3.3978076E-02
       vertex 2.4119357E-02 2.1810793E-02 3.3978076E-02
    endloop
endfacet
facet normal  8.5326457E-14 -8.715294E-15 1.0          
    outer loop
       vertex 2.4119357E-02 2.1810793E-02 3.3978076E-02
       vertex 2.4036951E-02 2.1800182E-02 3.3978076E-02
       vertex 2.4109893E-02 2.1718139E-02 3.3978076E-02
    endloop
endfacet
facet normal  1.0557755E-13 9.2892716E-15 1.0          
    outer loop
       vertex 2.4109893E-02 2.1718139E-02 3.3978076E-02
       vertex 2.4036951E-02 2.1800182E-02 3.3978076E-02
       vertex 2.4046625E-02 2.1690231E-02 3.3978076E-02
    endloop
endfacet
facet normal  8.2533511E-14 6.1530567E-14 1.0          
    outer loop
       vertex 2.4109893E-02 2.1718139E-02 3.3978076E-02
       vertex 2.4046625E-02 2.1690231E-02 3.3978076E-02
       vertex 2.4098919E-02 2.1620087E-02 3.3978076E-02
    endloop
endfacet
facet normal  5.7100205E-14 6.4377013E-14 1.0          
    outer loop
       vertex 2.4109893E-02 2.1718139E-02 3.3978076E-02
       vertex 2.4098919E-02 2.1620087E-02 3.3978076E-02
       vertex 2.4177263E-02 2.1658384E-02 3.3978076E-02
    endloop
endfacet
facet normal  4.9174515E-14 8.0590563E-14 1.0          
    outer loop
       vertex 2.4177263E-02 2.1658384E-02 3.3978076E-02
       vertex 2.4098919E-02 2.1620087E-02 3.3978076E-02
       vertex 2.4170570E-02 2.1576368E-02 3.3978076E-02
    endloop
endfacet
facet normal  -5.527487E-14 8.9114055E-14 1.0          
    outer loop
       vertex 2.4177263E-02 2.1658384E-02 3.3978076E-02
       vertex 2.4170570E-02 2.1576368E-02 3.3978076E-02
       vertex 2.4241766E-02 2.1620528E-02 3.3978076E-02
    endloop
endfacet
facet normal  0.0           0.0           1.0          
    outer loop
       vertex 2.4241766E-02 2.1620528E-02 3.3978076E-02
       vertex 2.4170570E-02 2.1576368E-02 3.3978076E-02
       vertex 2.4238203E-02 2.1545788E-02 3.3978076E-02
    endloop
endfacet
facet normal  0.0           0.0           1.0          
    outer loop
       vertex 2.4241766E-02 2.1620528E-02 3.3978076E-02
       vertex 2.4238203E-02 2.1545788E-02 3.3978076E-02
       vertex 2.4303410E-02 2.1595573E-02 3.3978076E-02
    endloop
endfacet
facet normal  0.0           0.0           1.0          
    outer loop
       vertex 2.4303410E-02 2.1595573E-02 3.3978076E-02
       vertex 2.4238203E-02 2.1545788E-02 3.3978076E-02
       vertex 2.4306160E-02 2.1528587E-02 3.3978076E-02
    endloop
endfacet
facet normal  -1.461112E-13 -5.998740E-15 1.0          
    outer loop
       vertex 2.4303410E-02 2.1595573E-02 3.3978076E-02
       vertex 2.4306160E-02 2.1528587E-02 3.3978076E-02
       vertex 2.4352022E-02 2.1568247E-02 3.3978076E-02
    endloop
endfacet
facet normal  -8.148751E-15 -1.655371E-13 1.0          
    outer loop
       vertex 2.4352022E-02 2.1568247E-02 3.3978076E-02
       vertex 2.4306160E-02 2.1528587E-02 3.3978076E-02
       vertex 2.4378744E-02 2.1525014E-02 3.3978076E-02
    endloop
endfacet
facet normal  3.9279811E-14 -1.362221E-13 1.0          
    outer loop
       vertex 2.4352022E-02 2.1568247E-02 3.3978076E-02
       vertex 2.4378744E-02 2.1525014E-02 3.3978076E-02
       vertex 2.4409206E-02 2.1584736E-02 3.3978076E-02
    endloop
endfacet
facet normal  3.9476293E-14 -1.363223E-13 1.0          
    outer loop
       vertex 2.4409206E-02 2.1584736E-02 3.3978076E-02
       vertex 2.4378744E-02 2.1525014E-02 3.3978076E-02
       vertex 2.4436211E-02 2.1541656E-02 3.3978076E-02
    endloop
endfacet
facet normal  1.4055202E-13 -7.296177E-14 1.0          
    outer loop
       vertex 2.4409206E-02 2.1584736E-02 3.3978076E-02
       vertex 2.4436211E-02 2.1541656E-02 3.3978076E-02
       vertex 2.4458744E-02 2.1585062E-02 3.3978076E-02
    endloop
endfacet
facet normal  1.3983420E-13 3.6057710E-14 1.0          
    outer loop
       vertex 2.4409206E-02 2.1584736E-02 3.3978076E-02
       vertex 2.4458744E-02 2.1585062E-02 3.3978076E-02
       vertex 2.4444902E-02 2.1638743E-02 3.3978076E-02
    endloop
endfacet
facet normal  7.9610251E-14 7.5863148E-14 1.0          
    outer loop
       vertex 2.4409206E-02 2.1584736E-02 3.3978076E-02
       vertex 2.4444902E-02 2.1638743E-02 3.3978076E-02
       vertex 2.4370043E-02 2.1625833E-02 3.3978076E-02
    endloop
endfacet
facet normal  7.8079206E-14 8.4741450E-14 1.0          
    outer loop
       vertex 2.4370043E-02 2.1625833E-02 3.3978076E-02
       vertex 2.4444902E-02 2.1638743E-02 3.3978076E-02
       vertex 2.4393203E-02 2.1686377E-02 3.3978076E-02
    endloop
endfacet
facet normal  -4.209151E-14 1.3071181E-13 1.0          
    outer loop
       vertex 2.4370043E-02 2.1625833E-02 3.3978076E-02
       vertex 2.4393203E-02 2.1686377E-02 3.3978076E-02
       vertex 2.4314367E-02 2.1660990E-02 3.3978076E-02
    endloop
endfacet
facet normal  0.0           0.0           1.0          
    outer loop
       vertex 2.4314367E-02 2.1660990E-02 3.3978076E-02
       vertex 2.4393203E-02 2.1686377E-02 3.3978076E-02
       vertex 2.4324418E-02 2.1732118E-02 3.3978076E-02
    endloop
endfacet
facet normal  0.0           0.0           1.0          
    outer loop
       vertex 2.4352022E-02 2.1568247E-02 3.3978076E-02
       vertex 2.4409206E-02 2.1584736E-02 3.3978076E-02
       vertex 2.4370043E-02 2.1625833E-02 3.3978076E-02
    endloop
endfacet
facet normal  0.0           0.0           1.0          
    outer loop
       vertex 2.4314367E-02 2.1660990E-02 3.3978076E-02
       vertex 2.4324418E-02 2.1732118E-02 3.3978076E-02
       vertex 2.4251034E-02 2.1694927E-02 3.3978076E-02
    endloop
endfacet
facet normal  0.0           0.0           1.0          
    outer loop
       vertex 2.4251034E-02 2.1694927E-02 3.3978076E-02
       vertex 2.4324418E-02 2.1732118E-02 3.3978076E-02
       vertex 2.4259272E-02 2.1780223E-02 3.3978076E-02
    endloop
endfacet
facet normal  9.8680468E-14 -9.530925E-15 1.0          
    outer loop
       vertex 2.4251034E-02 2.1694927E-02 3.3978076E-02
       vertex 2.4259272E-02 2.1780223E-02 3.3978076E-02
       vertex 2.4185781E-02 2.1747365E-02 3.3978076E-02
    endloop
endfacet
facet normal  5.9190771E-14 7.8792250E-14 1.0          
    outer loop
       vertex 2.4185781E-02 2.1747365E-02 3.3978076E-02
       vertex 2.4259272E-02 2.1780223E-02 3.3978076E-02
       vertex 2.4193305E-02 2.1829779E-02 3.3978076E-02
    endloop
endfacet
facet normal  -1.182221E-13 9.4987965E-14 1.0          
    outer loop
       vertex 2.4185781E-02 2.1747365E-02 3.3978076E-02
       vertex 2.4193305E-02 2.1829779E-02 3.3978076E-02
       vertex 2.4119357E-02 2.1810793E-02 3.3978076E-02
    endloop
endfacet
facet normal  -1.903583E-13 1.9443307E-14 1.0          
    outer loop
       vertex 2.4185781E-02 2.1747365E-02 3.3978076E-02
       vertex 2.4119357E-02 2.1810793E-02 3.3978076E-02
       vertex 2.4109893E-02 2.1718139E-02 3.3978076E-02
    endloop
endfacet
facet normal  -1.275080E-13 -1.437575E-13 1.0          
    outer loop
       vertex 2.4185781E-02 2.1747365E-02 3.3978076E-02
       vertex 2.4109893E-02 2.1718139E-02 3.3978076E-02
       vertex 2.4177263E-02 2.1658384E-02 3.3978076E-02
    endloop
endfacet
facet normal  -1.763863E-14 -1.542758E-13 1.0          
    outer loop
       vertex 2.4251034E-02 2.1694927E-02 3.3978076E-02
       vertex 2.4185781E-02 2.1747365E-02 3.3978076E-02
       vertex 2.4177263E-02 2.1658384E-02 3.3978076E-02
    endloop
endfacet
facet normal  -1.002460E-13 1.2487347E-14 1.0          
    outer loop
       vertex 2.4251034E-02 2.1694927E-02 3.3978076E-02
       vertex 2.4177263E-02 2.1658384E-02 3.3978076E-02
       vertex 2.4241766E-02 2.1620528E-02 3.3978076E-02
    endloop
endfacet
facet normal  0.0           0.0           1.0          
    outer loop
       vertex 2.4314367E-02 2.1660990E-02 3.3978076E-02
       vertex 2.4251034E-02 2.1694927E-02 3.3978076E-02
       vertex 2.4241766E-02 2.1620528E-02 3.3978076E-02
    endloop
endfacet
facet normal  0.0           0.0           1.0          
    outer loop
       vertex 2.4314367E-02 2.1660990E-02 3.3978076E-02
       vertex 2.4241766E-02 2.1620528E-02 3.3978076E-02
       vertex 2.4303410E-02 2.1595573E-02 3.3978076E-02
    endloop
endfacet
facet normal  -1.127093E-13 1.8878872E-14 1.0          
    outer loop
       vertex 2.4314367E-02 2.1660990E-02 3.3978076E-02
       vertex 2.4303410E-02 2.1595573E-02 3.3978076E-02
       vertex 2.4370043E-02 2.1625833E-02 3.3978076E-02
    endloop
endfacet
facet normal  -1.213862E-13 3.7985710E-14 1.0          
    outer loop
       vertex 2.4370043E-02 2.1625833E-02 3.3978076E-02
       vertex 2.4303410E-02 2.1595573E-02 3.3978076E-02
       vertex 2.4352022E-02 2.1568247E-02 3.3978076E-02
    endloop
endfacet
endsolid outlet5

