solid outlet2
facet normal  -1.573416E-13 8.8566695E-14 1.0          
    outer loop
       vertex 1.4783957E-02 1.1007243E-02 3.8270662E-02
       vertex 1.4739786E-02 1.0928773E-02 3.8270662E-02
       vertex 1.4822400E-02 1.0918845E-02 3.8270662E-02
    endloop
endfacet
facet normal  -1.810045E-13 -1.083551E-13 1.0          
    outer loop
       vertex 1.4822400E-02 1.0918845E-02 3.8270662E-02
       vertex 1.4739786E-02 1.0928773E-02 3.8270662E-02
       vertex 1.4775248E-02 1.0869535E-02 3.8270662E-02
    endloop
endfacet
facet normal  -1.061667E-13 -1.799183E-13 1.0          
    outer loop
       vertex 1.4822400E-02 1.0918845E-02 3.8270662E-02
       vertex 1.4775248E-02 1.0869535E-02 3.8270662E-02
       vertex 1.4850690E-02 1.0825018E-02 3.8270662E-02
    endloop
endfacet
facet normal  0.0           0.0           1.0          
    outer loop
       vertex 1.4865716E-02 1.1060894E-02 3.8270662E-02
       vertex 1.4783957E-02 1.1007243E-02 3.8270662E-02
       vertex 1.4872494E-02 1.0984728E-02 3.8270662E-02
    endloop
endfacet
facet normal  4.4885897E-14 1.7651419E-13 1.0          
    outer loop
       vertex 1.4872494E-02 1.0984728E-02 3.8270662E-02
       vertex 1.4783957E-02 1.1007243E-02 3.8270662E-02
       vertex 1.4822400E-02 1.0918845E-02 3.8270662E-02
    endloop
endfacet
facet normal  0.0           0.0           1.0          
    outer loop
       vertex 1.4943195E-02 1.1045653E-02 3.8270662E-02
       vertex 1.4865716E-02 1.1060894E-02 3.8270662E-02
       vertex 1.4872494E-02 1.0984728E-02 3.8270662E-02
    endloop
endfacet
facet normal  -6.163192E-14 -8.349709E-14 1.0          
    outer loop
       vertex 1.5012371E-02 1.0994592E-02 3.8270662E-02
       vertex 1.4943195E-02 1.1045653E-02 3.8270662E-02
       vertex 1.4942023E-02 1.0963415E-02 3.8270662E-02
    endloop
endfacet
facet normal  7.3611990E-14 -8.542433E-14 1.0          
    outer loop
       vertex 1.4942023E-02 1.0963415E-02 3.8270662E-02
       vertex 1.4943195E-02 1.1045653E-02 3.8270662E-02
       vertex 1.4872494E-02 1.0984728E-02 3.8270662E-02
    endloop
endfacet
facet normal  9.3441351E-14 9.8849768E-14 1.0          
    outer loop
       vertex 1.5069394E-02 1.0940690E-02 3.8270662E-02
       vertex 1.5012371E-02 1.0994592E-02 3.8270662E-02
       vertex 1.4978001E-02 1.0886690E-02 3.8270662E-02
    endloop
endfacet
facet normal  -1.812201E-13 1.8633890E-13 1.0          
    outer loop
       vertex 1.4978001E-02 1.0886690E-02 3.8270662E-02
       vertex 1.5012371E-02 1.0994592E-02 3.8270662E-02
       vertex 1.4942023E-02 1.0963415E-02 3.8270662E-02
    endloop
endfacet
facet normal  -5.254097E-14 -4.644292E-14 1.0          
    outer loop
       vertex 1.5121953E-02 1.0881229E-02 3.8270662E-02
       vertex 1.5069394E-02 1.0940690E-02 3.8270662E-02
       vertex 1.5027054E-02 1.0839182E-02 3.8270662E-02
    endloop
endfacet
facet normal  2.5511002E-13 -1.747676E-13 1.0          
    outer loop
       vertex 1.5027054E-02 1.0839182E-02 3.8270662E-02
       vertex 1.5069394E-02 1.0940690E-02 3.8270662E-02
       vertex 1.4978001E-02 1.0886690E-02 3.8270662E-02
    endloop
endfacet
facet normal  -1.542938E-13 -1.266929E-13 1.0          
    outer loop
       vertex 1.5177666E-02 1.0813379E-02 3.8270662E-02
       vertex 1.5121953E-02 1.0881229E-02 3.8270662E-02
       vertex 1.5093522E-02 1.0806315E-02 3.8270662E-02
    endloop
endfacet
facet normal  1.0770755E-14 -1.893368E-13 1.0          
    outer loop
       vertex 1.5093522E-02 1.0806315E-02 3.8270662E-02
       vertex 1.5121953E-02 1.0881229E-02 3.8270662E-02
       vertex 1.5027054E-02 1.0839182E-02 3.8270662E-02
    endloop
endfacet
facet normal  -2.113266E-13 -1.150879E-13 1.0          
    outer loop
       vertex 1.5212002E-02 1.0750330E-02 3.8270662E-02
       vertex 1.5177666E-02 1.0813379E-02 3.8270662E-02
       vertex 1.5145219E-02 1.0752374E-02 3.8270662E-02
    endloop
endfacet
facet normal  -1.526480E-13 -1.462967E-13 1.0          
    outer loop
       vertex 1.5145219E-02 1.0752374E-02 3.8270662E-02
       vertex 1.5177666E-02 1.0813379E-02 3.8270662E-02
       vertex 1.5093522E-02 1.0806315E-02 3.8270662E-02
    endloop
endfacet
facet normal  -2.061918E-13 5.2713208E-14 1.0          
    outer loop
       vertex 1.5200465E-02 1.0705204E-02 3.8270662E-02
       vertex 1.5212002E-02 1.0750330E-02 3.8270662E-02
       vertex 1.5145219E-02 1.0752374E-02 3.8270662E-02
    endloop
endfacet
facet normal  -7.086538E-14 2.1120864E-13 1.0          
    outer loop
       vertex 1.5154137E-02 1.0689659E-02 3.8270662E-02
       vertex 1.5200465E-02 1.0705204E-02 3.8270662E-02
       vertex 1.5145219E-02 1.0752374E-02 3.8270662E-02
    endloop
endfacet
facet normal  8.5865689E-14 2.3349377E-13 1.0          
    outer loop
       vertex 1.5084222E-02 1.0715370E-02 3.8270662E-02
       vertex 1.5154137E-02 1.0689659E-02 3.8270662E-02
       vertex 1.5145219E-02 1.0752374E-02 3.8270662E-02
    endloop
endfacet
facet normal  1.4386805E-13 1.3788208E-13 1.0          
    outer loop
       vertex 1.5084222E-02 1.0715370E-02 3.8270662E-02
       vertex 1.5145219E-02 1.0752374E-02 3.8270662E-02
       vertex 1.5093522E-02 1.0806315E-02 3.8270662E-02
    endloop
endfacet
facet normal  7.5768565E-14 1.4484638E-13 1.0          
    outer loop
       vertex 1.5003853E-02 1.0757410E-02 3.8270662E-02
       vertex 1.5084222E-02 1.0715370E-02 3.8270662E-02
       vertex 1.5093522E-02 1.0806315E-02 3.8270662E-02
    endloop
endfacet
facet normal  1.2834672E-13 4.8441841E-14 1.0          
    outer loop
       vertex 1.5003853E-02 1.0757410E-02 3.8270662E-02
       vertex 1.5093522E-02 1.0806315E-02 3.8270662E-02
       vertex 1.5027054E-02 1.0839182E-02 3.8270662E-02
    endloop
endfacet
facet normal  3.2620992E-14 7.5601314E-14 1.0          
    outer loop
       vertex 1.4926451E-02 1.0790808E-02 3.8270662E-02
       vertex 1.5003853E-02 1.0757410E-02 3.8270662E-02
       vertex 1.5027054E-02 1.0839182E-02 3.8270662E-02
    endloop
endfacet
facet normal  1.8688286E-13 -2.452143E-13 1.0          
    outer loop
       vertex 1.4926451E-02 1.0790808E-02 3.8270662E-02
       vertex 1.5027054E-02 1.0839182E-02 3.8270662E-02
       vertex 1.4978001E-02 1.0886690E-02 3.8270662E-02
    endloop
endfacet
facet normal  -3.571738E-14 -7.909952E-14 1.0          
    outer loop
       vertex 1.4850690E-02 1.0825018E-02 3.8270662E-02
       vertex 1.4926451E-02 1.0790808E-02 3.8270662E-02
       vertex 1.4901532E-02 1.0889784E-02 3.8270662E-02
    endloop
endfacet
facet normal  -9.454164E-14 -9.390978E-14 1.0          
    outer loop
       vertex 1.4901532E-02 1.0889784E-02 3.8270662E-02
       vertex 1.4926451E-02 1.0790808E-02 3.8270662E-02
       vertex 1.4978001E-02 1.0886690E-02 3.8270662E-02
    endloop
endfacet
facet normal  3.7523343E-14 -1.365940E-13 1.0          
    outer loop
       vertex 1.4822400E-02 1.0918845E-02 3.8270662E-02
       vertex 1.4850690E-02 1.0825018E-02 3.8270662E-02
       vertex 1.4901532E-02 1.0889784E-02 3.8270662E-02
    endloop
endfacet
facet normal  -8.130514E-14 2.3318999E-13 1.0          
    outer loop
       vertex 1.4901532E-02 1.0889784E-02 3.8270662E-02
       vertex 1.4978001E-02 1.0886690E-02 3.8270662E-02
       vertex 1.4942023E-02 1.0963415E-02 3.8270662E-02
    endloop
endfacet
facet normal  1.3484265E-13 1.1432427E-13 1.0          
    outer loop
       vertex 1.4942023E-02 1.0963415E-02 3.8270662E-02
       vertex 1.4872494E-02 1.0984728E-02 3.8270662E-02
       vertex 1.4901532E-02 1.0889784E-02 3.8270662E-02
    endloop
endfacet
facet normal  1.2901955E-13 1.1254332E-13 1.0          
    outer loop
       vertex 1.4901532E-02 1.0889784E-02 3.8270662E-02
       vertex 1.4872494E-02 1.0984728E-02 3.8270662E-02
       vertex 1.4822400E-02 1.0918845E-02 3.8270662E-02
    endloop
endfacet
endsolid outlet2

