solid outlet1
facet normal  1.0           1.9607726E-14 -1.863729E-14
    outer loop
       vertex 9.1638403E-03 8.3556700E-03 3.6927032E-02
       vertex 9.1638403E-03 8.4228144E-03 3.6997673E-02
       vertex 9.1638403E-03 8.3458205E-03 3.7009748E-02
    endloop
endfacet
facet normal  1.0           2.3594450E-14 6.7829394E-15
    outer loop
       vertex 9.1638403E-03 8.3458205E-03 3.7009748E-02
       vertex 9.1638403E-03 8.4228144E-03 3.6997673E-02
       vertex 9.1638403E-03 8.4116812E-03 3.7036400E-02
    endloop
endfacet
facet normal  1.0           1.2733939E-14 3.3621090E-14
    outer loop
       vertex 9.1638403E-03 8.3458205E-03 3.7009748E-02
       vertex 9.1638403E-03 8.4116812E-03 3.7036400E-02
       vertex 9.1638403E-03 8.3604183E-03 3.7055816E-02
    endloop
endfacet
facet normal  1.0           8.3187370E-15 3.5020183E-14
    outer loop
       vertex 9.1638403E-03 8.3458205E-03 3.7009748E-02
       vertex 9.1638403E-03 8.3604183E-03 3.7055816E-02
       vertex 9.1638403E-03 8.3071368E-03 3.7068472E-02
    endloop
endfacet
facet normal  1.0           -1.360733E-14 2.1185931E-14
    outer loop
       vertex 9.1638403E-03 8.2634252E-03 3.6867785E-02
       vertex 9.1638403E-03 8.3556700E-03 3.6927032E-02
       vertex 9.1638403E-03 8.2808118E-03 3.6960833E-02
    endloop
endfacet
facet normal  1.0           -3.449788E-14 -2.508000E-14
    outer loop
       vertex 9.1638403E-03 8.2808118E-03 3.6960833E-02
       vertex 9.1638403E-03 8.3556700E-03 3.6927032E-02
       vertex 9.1638403E-03 8.3458205E-03 3.7009748E-02
    endloop
endfacet
facet normal  1.0           -1.817327E-15 2.5726626E-14
    outer loop
       vertex 9.1638403E-03 8.1991729E-03 3.6863247E-02
       vertex 9.1638403E-03 8.2634252E-03 3.6867785E-02
       vertex 9.1638403E-03 8.2066851E-03 3.6931206E-02
    endloop
endfacet
facet normal  1.0           -8.052772E-15 2.0148031E-14
    outer loop
       vertex 9.1638403E-03 8.2066851E-03 3.6931206E-02
       vertex 9.1638403E-03 8.2634252E-03 3.6867785E-02
       vertex 9.1638403E-03 8.2808118E-03 3.6960833E-02
    endloop
endfacet
facet normal  1.0           1.2707975E-14 2.4121007E-14
    outer loop
       vertex 9.1638403E-03 8.1535581E-03 3.6887278E-02
       vertex 9.1638403E-03 8.1991729E-03 3.6863247E-02
       vertex 9.1638403E-03 8.2066851E-03 3.6931206E-02
    endloop
endfacet
facet normal  1.0           0.0           0.0          
    outer loop
       vertex 9.1638403E-03 8.1172473E-03 3.6913720E-02
       vertex 9.1638403E-03 8.1535581E-03 3.6887278E-02
       vertex 9.1638403E-03 8.1419977E-03 3.6946194E-02
    endloop
endfacet
facet normal  1.0           2.8094288E-14 5.5126191E-15
    outer loop
       vertex 9.1638403E-03 8.1419977E-03 3.6946194E-02
       vertex 9.1638403E-03 8.1535581E-03 3.6887278E-02
       vertex 9.1638403E-03 8.2066851E-03 3.6931206E-02
    endloop
endfacet
facet normal  1.0           0.0           0.0          
    outer loop
       vertex 9.1638403E-03 8.0832274E-03 3.6952380E-02
       vertex 9.1638403E-03 8.1172473E-03 3.6913720E-02
       vertex 9.1638403E-03 8.1419977E-03 3.6946194E-02
    endloop
endfacet
facet normal  1.0           0.0           0.0          
    outer loop
       vertex 9.1638403E-03 8.0445521E-03 3.7013020E-02
       vertex 9.1638403E-03 8.0832274E-03 3.6952380E-02
       vertex 9.1638403E-03 8.1151308E-03 3.7003324E-02
    endloop
endfacet
facet normal  1.0           0.0           0.0          
    outer loop
       vertex 9.1638403E-03 8.1151308E-03 3.7003324E-02
       vertex 9.1638403E-03 8.0832274E-03 3.6952380E-02
       vertex 9.1638403E-03 8.1419977E-03 3.6946194E-02
    endloop
endfacet
facet normal  1.0           2.5503292E-14 8.1903090E-15
    outer loop
       vertex 9.1638403E-03 8.0245018E-03 3.7075454E-02
       vertex 9.1638403E-03 8.0445521E-03 3.7013020E-02
       vertex 9.1638403E-03 8.0934563E-03 3.7072543E-02
    endloop
endfacet
facet normal  1.0           3.5977744E-15 2.6188161E-14
    outer loop
       vertex 9.1638403E-03 8.0934563E-03 3.7072543E-02
       vertex 9.1638403E-03 8.0445521E-03 3.7013020E-02
       vertex 9.1638403E-03 8.1151308E-03 3.7003324E-02
    endloop
endfacet
facet normal  1.0           2.4642031E-14 -1.220907E-14
    outer loop
       vertex 9.1638403E-03 8.0463022E-03 3.7119455E-02
       vertex 9.1638403E-03 8.0245018E-03 3.7075454E-02
       vertex 9.1638403E-03 8.0934563E-03 3.7072543E-02
    endloop
endfacet
facet normal  1.0           8.8549055E-15 -2.807769E-14
    outer loop
       vertex 9.1638403E-03 8.0988318E-03 3.7136021E-02
       vertex 9.1638403E-03 8.0463022E-03 3.7119455E-02
       vertex 9.1638403E-03 8.0934563E-03 3.7072543E-02
    endloop
endfacet
facet normal  1.0           -7.408054E-15 -2.670051E-14
    outer loop
       vertex 9.1638403E-03 8.1709832E-03 3.7116002E-02
       vertex 9.1638403E-03 8.0988318E-03 3.7136021E-02
       vertex 9.1638403E-03 8.0934563E-03 3.7072543E-02
    endloop
endfacet
facet normal  1.0           -8.186745E-15 -2.531142E-14
    outer loop
       vertex 9.1638403E-03 8.1709832E-03 3.7116002E-02
       vertex 9.1638403E-03 8.0934563E-03 3.7072543E-02
       vertex 9.1638403E-03 8.1731844E-03 3.7046755E-02
    endloop
endfacet
facet normal  1.0           9.0194185E-15 2.7885846E-14
    outer loop
       vertex 9.1638403E-03 8.1731844E-03 3.7046755E-02
       vertex 9.1638403E-03 8.0934563E-03 3.7072543E-02
       vertex 9.1638403E-03 8.1151308E-03 3.7003324E-02
    endloop
endfacet
facet normal  1.0           -1.050266E-14 -2.538504E-14
    outer loop
       vertex 9.1638403E-03 8.2459716E-03 3.7084977E-02
       vertex 9.1638403E-03 8.1709832E-03 3.7116002E-02
       vertex 9.1638403E-03 8.1731844E-03 3.7046755E-02
    endloop
endfacet
facet normal  1.0           -3.303113E-14 -2.702934E-14
    outer loop
       vertex 9.1638403E-03 8.2808118E-03 3.6960833E-02
       vertex 9.1638403E-03 8.3458205E-03 3.7009748E-02
       vertex 9.1638403E-03 8.2806135E-03 3.7025255E-02
    endloop
endfacet
facet normal  1.0           -2.321514E-14 1.4247643E-14
    outer loop
       vertex 9.1638403E-03 8.2806135E-03 3.7025255E-02
       vertex 9.1638403E-03 8.3458205E-03 3.7009748E-02
       vertex 9.1638403E-03 8.3071368E-03 3.7068472E-02
    endloop
endfacet
facet normal  1.0           0.0           0.0          
    outer loop
       vertex 9.1638403E-03 8.2806135E-03 3.7025255E-02
       vertex 9.1638403E-03 8.3071368E-03 3.7068472E-02
       vertex 9.1638403E-03 8.2459716E-03 3.7084977E-02
    endloop
endfacet
facet normal  1.0           0.0           0.0          
    outer loop
       vertex 9.1638403E-03 8.2806135E-03 3.7025255E-02
       vertex 9.1638403E-03 8.2459716E-03 3.7084977E-02
       vertex 9.1638403E-03 8.2248960E-03 3.7006451E-02
    endloop
endfacet
facet normal  1.0           -2.774276E-14 7.4458241E-15
    outer loop
       vertex 9.1638403E-03 8.2248960E-03 3.7006451E-02
       vertex 9.1638403E-03 8.2459716E-03 3.7084977E-02
       vertex 9.1638403E-03 8.1731844E-03 3.7046755E-02
    endloop
endfacet
facet normal  1.0           8.4384800E-15 2.8662376E-14
    outer loop
       vertex 9.1638403E-03 8.1731844E-03 3.7046755E-02
       vertex 9.1638403E-03 8.1151308E-03 3.7003324E-02
       vertex 9.1638403E-03 8.1697366E-03 3.6987248E-02
    endloop
endfacet
facet normal  1.0           -1.035751E-14 2.9751396E-14
    outer loop
       vertex 9.1638403E-03 8.2248960E-03 3.7006451E-02
       vertex 9.1638403E-03 8.1731844E-03 3.7046755E-02
       vertex 9.1638403E-03 8.1697366E-03 3.6987248E-02
    endloop
endfacet
facet normal  1.0           0.0           0.0          
    outer loop
       vertex 9.1638403E-03 8.1697366E-03 3.6987248E-02
       vertex 9.1638403E-03 8.1151308E-03 3.7003324E-02
       vertex 9.1638403E-03 8.1419977E-03 3.6946194E-02
    endloop
endfacet
facet normal  1.0           2.3186970E-14 -1.566699E-14
    outer loop
       vertex 9.1638403E-03 8.1697366E-03 3.6987248E-02
       vertex 9.1638403E-03 8.1419977E-03 3.6946194E-02
       vertex 9.1638403E-03 8.2066851E-03 3.6931206E-02
    endloop
endfacet
facet normal  1.0           8.7645789E-15 -2.517578E-14
    outer loop
       vertex 9.1638403E-03 8.2248960E-03 3.7006451E-02
       vertex 9.1638403E-03 8.1697366E-03 3.6987248E-02
       vertex 9.1638403E-03 8.2066851E-03 3.6931206E-02
    endloop
endfacet
facet normal  1.0           1.0201236E-14 -2.552349E-14
    outer loop
       vertex 9.1638403E-03 8.2066851E-03 3.6931206E-02
       vertex 9.1638403E-03 8.2808118E-03 3.6960833E-02
       vertex 9.1638403E-03 8.2248960E-03 3.7006451E-02
    endloop
endfacet
facet normal  1.0           9.0784614E-15 -2.689974E-14
    outer loop
       vertex 9.1638403E-03 8.2248960E-03 3.7006451E-02
       vertex 9.1638403E-03 8.2808118E-03 3.6960833E-02
       vertex 9.1638403E-03 8.2806135E-03 3.7025255E-02
    endloop
endfacet
endsolid outlet1

