solid outlet6
facet normal  0.0           0.0           1.0          
    outer loop
       vertex 1.8766945E-02 2.1781137E-02 4.4953408E-02
       vertex 1.8723063E-02 2.1772714E-02 4.4953408E-02
       vertex 1.8750341E-02 2.1676960E-02 4.4953408E-02
    endloop
endfacet
facet normal  0.0           0.0           1.0          
    outer loop
       vertex 1.8851102E-02 2.1741903E-02 4.4953408E-02
       vertex 1.8766945E-02 2.1781137E-02 4.4953408E-02
       vertex 1.8750341E-02 2.1676960E-02 4.4953408E-02
    endloop
endfacet
facet normal  1.0208215E-13 -1.583835E-13 1.0          
    outer loop
       vertex 1.8851102E-02 2.1741903E-02 4.4953408E-02
       vertex 1.8750341E-02 2.1676960E-02 4.4953408E-02
       vertex 1.8854412E-02 2.1656415E-02 4.4953408E-02
    endloop
endfacet
facet normal  1.5094843E-13 8.9147680E-14 1.0          
    outer loop
       vertex 1.8854412E-02 2.1656415E-02 4.4953408E-02
       vertex 1.8750341E-02 2.1676960E-02 4.4953408E-02
       vertex 1.8817288E-02 2.1563603E-02 4.4953408E-02
    endloop
endfacet
facet normal  -8.347243E-14 -1.655678E-13 1.0          
    outer loop
       vertex 1.8944763E-02 2.1694683E-02 4.4953408E-02
       vertex 1.8851102E-02 2.1741903E-02 4.4953408E-02
       vertex 1.8854412E-02 2.1656415E-02 4.4953408E-02
    endloop
endfacet
facet normal  -1.391496E-13 -3.411449E-14 1.0          
    outer loop
       vertex 1.8944763E-02 2.1694683E-02 4.4953408E-02
       vertex 1.8854412E-02 2.1656415E-02 4.4953408E-02
       vertex 1.8917526E-02 2.1602383E-02 4.4953408E-02
    endloop
endfacet
facet normal  1.3459623E-14 1.4414282E-13 1.0          
    outer loop
       vertex 1.8917526E-02 2.1602383E-02 4.4953408E-02
       vertex 1.8854412E-02 2.1656415E-02 4.4953408E-02
       vertex 1.8817288E-02 2.1563603E-02 4.4953408E-02
    endloop
endfacet
facet normal  4.6915611E-14 5.7664707E-14 1.0          
    outer loop
       vertex 1.8917526E-02 2.1602383E-02 4.4953408E-02
       vertex 1.8817288E-02 2.1563603E-02 4.4953408E-02
       vertex 1.8892586E-02 2.1502341E-02 4.4953408E-02
    endloop
endfacet
facet normal  -3.410508E-14 -6.511286E-14 1.0          
    outer loop
       vertex 1.9041157E-02 2.1644194E-02 4.4953408E-02
       vertex 1.8944763E-02 2.1694683E-02 4.4953408E-02
       vertex 1.8917526E-02 2.1602383E-02 4.4953408E-02
    endloop
endfacet
facet normal  -4.964568E-14 8.1736722E-14 1.0          
    outer loop
       vertex 1.8917526E-02 2.1602383E-02 4.4953408E-02
       vertex 1.8892586E-02 2.1502341E-02 4.4953408E-02
       vertex 1.8970948E-02 2.1549937E-02 4.4953408E-02
    endloop
endfacet
facet normal  0.0           0.0           1.0          
    outer loop
       vertex 1.8970948E-02 2.1549937E-02 4.4953408E-02
       vertex 1.8892586E-02 2.1502341E-02 4.4953408E-02
       vertex 1.8971924E-02 2.1473861E-02 4.4953408E-02
    endloop
endfacet
facet normal  0.0           0.0           1.0          
    outer loop
       vertex 1.8970948E-02 2.1549937E-02 4.4953408E-02
       vertex 1.8971924E-02 2.1473861E-02 4.4953408E-02
       vertex 1.9045073E-02 2.1540481E-02 4.4953408E-02
    endloop
endfacet
facet normal  0.0           0.0           1.0          
    outer loop
       vertex 1.9045073E-02 2.1540481E-02 4.4953408E-02
       vertex 1.8971924E-02 2.1473861E-02 4.4953408E-02
       vertex 1.9051007E-02 2.1458966E-02 4.4953408E-02
    endloop
endfacet
facet normal  2.3817024E-13 1.7336400E-14 1.0          
    outer loop
       vertex 1.9045073E-02 2.1540481E-02 4.4953408E-02
       vertex 1.9051007E-02 2.1458966E-02 4.4953408E-02
       vertex 1.9105591E-02 2.1509581E-02 4.4953408E-02
    endloop
endfacet
facet normal  1.4060236E-14 2.5902009E-13 1.0          
    outer loop
       vertex 1.9105591E-02 2.1509581E-02 4.4953408E-02
       vertex 1.9051007E-02 2.1458966E-02 4.4953408E-02
       vertex 1.9126540E-02 2.1454866E-02 4.4953408E-02
    endloop
endfacet
facet normal  -1.891160E-13 1.8122863E-13 1.0          
    outer loop
       vertex 1.9105591E-02 2.1509581E-02 4.4953408E-02
       vertex 1.9126540E-02 2.1454866E-02 4.4953408E-02
       vertex 1.9177850E-02 2.1508409E-02 4.4953408E-02
    endloop
endfacet
facet normal  0.0           0.0           1.0          
    outer loop
       vertex 1.9177850E-02 2.1508409E-02 4.4953408E-02
       vertex 1.9126540E-02 2.1454866E-02 4.4953408E-02
       vertex 1.9195267E-02 2.1458765E-02 4.4953408E-02
    endloop
endfacet
facet normal  0.0           0.0           1.0          
    outer loop
       vertex 1.9177850E-02 2.1508409E-02 4.4953408E-02
       vertex 1.9195267E-02 2.1458765E-02 4.4953408E-02
       vertex 1.9239732E-02 2.1474768E-02 4.4953408E-02
    endloop
endfacet
facet normal  0.0           0.0           1.0          
    outer loop
       vertex 1.9177850E-02 2.1508409E-02 4.4953408E-02
       vertex 1.9239732E-02 2.1474768E-02 4.4953408E-02
       vertex 1.9242477E-02 2.1506863E-02 4.4953408E-02
    endloop
endfacet
facet normal  0.0           0.0           1.0          
    outer loop
       vertex 1.9177850E-02 2.1508409E-02 4.4953408E-02
       vertex 1.9242477E-02 2.1506863E-02 4.4953408E-02
       vertex 1.9206265E-02 2.1549010E-02 4.4953408E-02
    endloop
endfacet
facet normal  0.0           0.0           1.0          
    outer loop
       vertex 1.9177850E-02 2.1508409E-02 4.4953408E-02
       vertex 1.9206265E-02 2.1549010E-02 4.4953408E-02
       vertex 1.9133721E-02 2.1595201E-02 4.4953408E-02
    endloop
endfacet
facet normal  -7.502539E-14 5.5884393E-14 1.0          
    outer loop
       vertex 1.9041157E-02 2.1644194E-02 4.4953408E-02
       vertex 1.8917526E-02 2.1602383E-02 4.4953408E-02
       vertex 1.8970948E-02 2.1549937E-02 4.4953408E-02
    endloop
endfacet
facet normal  0.0           0.0           1.0          
    outer loop
       vertex 1.9041157E-02 2.1644194E-02 4.4953408E-02
       vertex 1.8970948E-02 2.1549937E-02 4.4953408E-02
       vertex 1.9045073E-02 2.1540481E-02 4.4953408E-02
    endloop
endfacet
facet normal  0.0           0.0           1.0          
    outer loop
       vertex 1.9133721E-02 2.1595201E-02 4.4953408E-02
       vertex 1.9041157E-02 2.1644194E-02 4.4953408E-02
       vertex 1.9045073E-02 2.1540481E-02 4.4953408E-02
    endloop
endfacet
facet normal  1.2550176E-13 -2.033199E-13 1.0          
    outer loop
       vertex 1.9045073E-02 2.1540481E-02 4.4953408E-02
       vertex 1.9105591E-02 2.1509581E-02 4.4953408E-02
       vertex 1.9133721E-02 2.1595201E-02 4.4953408E-02
    endloop
endfacet
facet normal  -1.936523E-13 -9.846163E-14 1.0          
    outer loop
       vertex 1.9133721E-02 2.1595201E-02 4.4953408E-02
       vertex 1.9105591E-02 2.1509581E-02 4.4953408E-02
       vertex 1.9177850E-02 2.1508409E-02 4.4953408E-02
    endloop
endfacet
endsolid outlet6

